<svg width="541" height="78" viewBox="0 0 541 78" fill="none" xmlns="http://www.w3.org/2000/svg">
<path d="M498.636 1.47153L83.1896 1.02288C69.1644 1.00774 55.2378 3.36677 42 8L32.5 11.5L24.524 15.8868C23.1791 16.6265 21.9239 17.5185 20.7831 18.5452L17.5 21.5L14 25.5L13.7639 25.7698C6.26248 34.3429 7.42618 47.4409 16.3216 54.5572L22.5 59.5L23.8575 60.3824C29.6078 64.12 35.6792 67.3386 42 70L51.8354 73.25C58.5826 75.0754 65.5402 76.0076 72.53 76.0227L496.77 76.939C513.907 76.976 529.428 66.8288 536.269 51.1162C539.293 44.1704 539.367 36.2946 536.476 29.2926L535.062 25.8678C528.971 11.1176 514.595 1.48876 498.636 1.47153Z" fill="white" stroke="#2C6A8C"/>
<path d="M60.9065 17.3101L60.0581 11.3711L70.5 8.64717V13.6554L60.9065 17.3101Z" fill="#6E6C6F" stroke="#333134"/>
<path d="M51.415 22.9557L45.6128 21.2979L57.6236 12.401L58.4605 18.2588L51.415 22.9557Z" fill="#6E6C6F" stroke="#333134"/>
<path d="M43.7014 37.5H34.8929L43.7187 23.1L50.2779 25.2864L43.7014 37.5Z" fill="#6E6C6F" stroke="#333134"/>
<path d="M50.261 52.6796L43.7313 54.4208L34.8654 39.9551L43.2091 39.516L50.261 52.6796Z" fill="#6E6C6F" stroke="#333134"/>
<path d="M58.4999 58.2794L58.5 64.1115L46.1823 56.6329L52.4367 54.5481L58.4999 58.2794Z" fill="#6E6C6F" stroke="#333134"/>
<path d="M70.2679 62.4764L70.2679 68.3417L60.5 65.6203L60.5 59.6643L70.2679 62.4764Z" fill="#6E6C6F" stroke="#333134"/>
<rect x="111" y="10" width="4" height="61" fill="#2C6A8C"/>
<rect x="489" y="8" width="4" height="61" fill="#2C6A8C"/>
</svg>
