<svg width="320" height="90" viewBox="0 0 320 90" fill="none" xmlns="http://www.w3.org/2000/svg">
<path d="M5 1.5H315C316.933 1.5 318.5 3.067 318.5 5V85C318.5 86.933 316.933 88.5 315 88.5H5C3.067 88.5 1.5 86.933 1.5 85V5C1.5 3.067 3.067 1.5 5 1.5Z" fill="#F9FBFD" stroke="#2C6A8C" stroke-width="3"/>
<line x1="17.5" y1="57" x2="17.5" y2="87" stroke="#2C6A8C"/>
<path d="M25.5 11.3333V22.9999H24.5C24.1022 22.9999 23.7206 22.8155 23.4393 22.4874C23.158 22.1592 23 21.714 23 21.2499V13.0833C23 12.6191 23.158 12.174 23.4393 11.8458C23.7206 11.5176 24.1022 11.3333 24.5 11.3333H25.5Z" fill="black"/>
<path d="M35 11.3333H26V22.9999H35V11.3333Z" fill="black"/>
<path d="M35.5 11.3333H36.5C36.8978 11.3333 37.2794 11.5176 37.5607 11.8458C37.842 12.174 38 12.6191 38 13.0833V21.2499C38 21.714 37.842 22.1592 37.5607 22.4874C37.2794 22.8155 36.8978 22.9999 36.5 22.9999H35.5V11.3333Z" fill="black"/>
<path d="M28.25 11.1875V10.3125C28.25 9.9644 28.3685 9.63056 28.5795 9.38442C28.7905 9.13828 29.0766 9 29.375 9H31.625C31.9234 9 32.2095 9.13828 32.4205 9.38442C32.6315 9.63056 32.75 9.9644 32.75 10.3125V11.1875H32V10.3125C32 10.1965 31.9605 10.0852 31.8902 10.0031C31.8198 9.92109 31.7245 9.875 31.625 9.875H29.375C29.2755 9.875 29.1802 9.92109 29.1098 10.0031C29.0395 10.0852 29 10.1965 29 10.3125V11.1875H28.25Z" fill="black"/>
<path d="M25.5 11.3333V22.9999H24.5C24.1022 22.9999 23.7206 22.8155 23.4393 22.4874C23.158 22.1592 23 21.714 23 21.2499V13.0833C23 12.6191 23.158 12.174 23.4393 11.8458C23.7206 11.5176 24.1022 11.3333 24.5 11.3333H25.5Z" fill="black"/>
<path d="M35 11.3333H26V22.9999H35V11.3333Z" fill="black"/>
<path d="M35.5 11.3333H36.5C36.8978 11.3333 37.2794 11.5176 37.5607 11.8458C37.842 12.174 38 12.6191 38 13.0833V21.2499C38 21.714 37.842 22.1592 37.5607 22.4874C37.2794 22.8155 36.8978 22.9999 36.5 22.9999H35.5V11.3333Z" fill="black"/>
<path d="M28.25 11.1875V10.3125C28.25 9.9644 28.3685 9.63056 28.5795 9.38442C28.7905 9.13828 29.0766 9 29.375 9H31.625C31.9234 9 32.2095 9.13828 32.4205 9.38442C32.6315 9.63056 32.75 9.9644 32.75 10.3125V11.1875H32V10.3125C32 10.1965 31.9605 10.0852 31.8902 10.0031C31.8198 9.92109 31.7245 9.875 31.625 9.875H29.375C29.2755 9.875 29.1802 9.92109 29.1098 10.0031C29.0395 10.0852 29 10.1965 29 10.3125V11.1875H28.25Z" fill="black"/>
<line x1="17.5" y1="3" x2="17.5" y2="33" stroke="#2C6A8C"/>
<line x1="44.5" y1="3" x2="44.5" y2="33" stroke="#2C6A8C"/>
<line x1="285.5" y1="3" x2="285.5" y2="33" stroke="#2C6A8C"/>
<line x1="302.5" y1="3" x2="302.5" y2="33" stroke="#2C6A8C"/>
<path d="M268 3V33" stroke="#2C6A8C"/>
<path d="M291.112 14.6275C291.526 14.6275 291.862 14.2631 291.862 13.8137C291.862 13.3643 291.526 13 291.112 13C290.697 13 290.361 13.3643 290.361 13.8137C290.361 14.2631 290.697 14.6275 291.112 14.6275Z" fill="black"/>
<path d="M291.008 19.7852V22.6145C291.004 23.1285 290.298 23.1285 290.292 22.6145V19.7852H289.368L290.361 16.0045H290.199L289.622 18.1578C289.476 18.634 288.882 18.4412 289.021 17.9324L289.668 15.6039C289.742 15.3365 290.053 14.8643 290.592 14.8528H291.077H291.631C292.154 14.8643 292.467 15.3405 292.555 15.6039L293.202 17.9324C293.333 18.4387 292.744 18.6465 292.601 18.1578L292.024 16.0045H291.839L292.856 19.7852H291.908V22.6145C291.916 23.1285 291.213 23.126 291.215 22.6145V19.7852H291.008Z" fill="black"/>
<path d="M297.256 14.6275C297.671 14.6275 298.007 14.2631 298.007 13.8137C298.007 13.3643 297.671 13 297.256 13C296.841 13 296.505 13.3643 296.505 13.8137C296.505 14.2631 296.841 14.6275 297.256 14.6275Z" fill="black"/>
<path d="M296.459 14.8528C295.882 14.8528 295.512 15.3945 295.512 15.9294V18.4332C295.507 18.9224 296.156 18.9224 296.159 18.4332V16.1297H296.32V22.4893C296.31 23.1533 297.176 23.1343 297.175 22.4893V18.7837H297.314V22.4893C297.325 23.1343 298.195 23.1533 298.191 22.4893V16.1297H298.353V18.4332C298.345 18.9262 298.992 18.9262 299 18.4332V15.9294C298.991 15.3945 298.607 14.8624 298.03 14.8528H296.459Z" fill="black"/>
<path d="M294.657 13.1001H293.802V22.94H294.657V13.1001Z" fill="black"/>
<line x1="285.5" y1="57" x2="285.5" y2="87" stroke="#2C6A8C"/>
<line x1="302.5" y1="57" x2="302.5" y2="87" stroke="#2C6A8C"/>
<path d="M268 57V87" stroke="#2C6A8C"/>
<path d="M291.112 68.6275C291.526 68.6275 291.862 68.2631 291.862 67.8137C291.862 67.3643 291.526 67 291.112 67C290.697 67 290.361 67.3643 290.361 67.8137C290.361 68.2631 290.697 68.6275 291.112 68.6275Z" fill="black"/>
<path d="M291.008 73.7852V76.6145C291.004 77.1285 290.298 77.1285 290.292 76.6145V73.7852H289.368L290.361 70.0045H290.199L289.622 72.1578C289.476 72.634 288.882 72.4412 289.021 71.9324L289.668 69.6039C289.742 69.3365 290.053 68.8643 290.592 68.8528H291.077H291.631C292.154 68.8643 292.467 69.3405 292.555 69.6039L293.202 71.9324C293.333 72.4387 292.744 72.6465 292.601 72.1578L292.024 70.0045H291.839L292.856 73.7852H291.908V76.6145C291.916 77.1285 291.213 77.126 291.215 76.6145V73.7852H291.008Z" fill="black"/>
<path d="M297.256 68.6275C297.671 68.6275 298.007 68.2631 298.007 67.8137C298.007 67.3643 297.671 67 297.256 67C296.841 67 296.505 67.3643 296.505 67.8137C296.505 68.2631 296.841 68.6275 297.256 68.6275Z" fill="black"/>
<path d="M296.459 68.8528C295.882 68.8528 295.512 69.3945 295.512 69.9294V72.4332C295.507 72.9224 296.156 72.9224 296.159 72.4332V70.1297H296.32V76.4893C296.31 77.1533 297.176 77.1343 297.175 76.4893V72.7837H297.314V76.4893C297.325 77.1343 298.195 77.1533 298.191 76.4893V70.1297H298.353V72.4332C298.345 72.9262 298.992 72.9262 299 72.4332V69.9294C298.991 69.3945 298.607 68.8624 298.03 68.8528H296.459Z" fill="black"/>
<path d="M294.657 67.1001H293.802V76.94H294.657V67.1001Z" fill="black"/>
</svg>
